<svg xmlns="http://www.w3.org/2000/svg" xmlns:xlink="http://www.w3.org/1999/xlink" width="154" height="154" viewBox="0 0 154 154">
  <defs>
    <clipPath id="clip-path">
      <rect id="Rectangle_6236" data-name="Rectangle 6236" width="116.448" height="37.573" fill="#b3b5c9"/>
    </clipPath>
  </defs>
  <g id="Groupe_16809" data-name="Groupe 16809" transform="translate(-1250 -1203)">
    <g id="Ellipse_10" data-name="Ellipse 10" transform="translate(1250 1203)" fill="none" stroke="#b3b5c9" stroke-width="6">
      <circle cx="77" cy="77" r="77" stroke="none"/>
      <circle cx="77" cy="77" r="74" fill="none"/>
    </g>
    <g id="Groupe_16745" data-name="Groupe 16745" transform="translate(1268.776 1262.77)">
      <g id="Groupe_16744" data-name="Groupe 16744" transform="translate(0 0)" clip-path="url(#clip-path)">
        <path id="Tracé_3191" data-name="Tracé 3191" d="M0,20.656c.671-2.134,1.866-3.96,4.086-4.507a48.256,48.256,0,0,1,6.461-.722c-.963-1.578-1.9-3.192-2.939-4.745-.178-.267-.741-.319-1.141-.387-1.043-.178-2.093-.309-3.14-.458C1.662,9.6,1.662,9.6,1.937,7.874c.415-2.608.413-2.595,2.974-2.219,3.625.533,7.254,1.042,10.881,1.571.364.053.719.171,1.177.283-.147,1.152-.3,2.229-.419,3.309-.077.67-.422.9-1.076.792s-1.329-.178-2.34-.309c.935,1.532,1.68,2.826,2.517,4.059a1.239,1.239,0,0,0,1.026.265c2.484-.43,4.268.68,6.04,2.3,3.465,3.163,7.109,6.129,10.651,9.208a3.553,3.553,0,0,0,2.664,1c1.132-.064,2.271.008,3.406-.033a1.813,1.813,0,0,0,1.905-1.709,1.78,1.78,0,0,0-1.593-2.1,7.21,7.21,0,0,0-2.028-.112,3.685,3.685,0,0,1-3.036-1.151c-2.319-2.118-4.714-4.153-7.076-6.225-.3-.267-.591-.554-1.109-1.043.629-.056.977-.112,1.325-.114,1.817-.009,3.635.033,5.45-.02a3.083,3.083,0,0,1,2.248.842q6.264,5.429,12.6,10.779a3.471,3.471,0,0,0,2.008.829c7.419.059,14.838.032,22.258.042.96,0,1.845-.277,2.046-1.239a2.567,2.567,0,0,0-.42-2.025,3.182,3.182,0,0,0-2.06-.664c-2.723-.072-5.45-.03-8.176-.03-4.088,0-8.177.017-12.264-.022a2.6,2.6,0,0,1-1.541-.5c-2.849-2.374-5.651-4.807-8.463-7.225a8.379,8.379,0,0,1-.6-.676c.589-.04.977-.091,1.365-.091,9.955,0,19.911-.031,29.867,0a127.625,127.625,0,0,1,39.468,6.364,21.516,21.516,0,0,1,3.123,1.608l-.142.457c-.383.027-.767.051-1.15.082a12.736,12.736,0,0,0-1.687.159,1.9,1.9,0,0,0,.306,3.765c1.133.062,2.271.049,3.406.027.68-.013.9.261.932.939.151,3.465.168,3.464-3.275,3.464-2.082,0-4.164-.023-6.246.01-.759.012-1.029-.228-1.1-1.025a12.335,12.335,0,0,0-24.614.084c-.061.662-.279.982-.96.931-.264-.02-.53,0-.795,0H29.09c-.146-1.011-.213-1.88-.4-2.721a12.354,12.354,0,0,0-24.249.464,1.974,1.974,0,0,1-.04.223c-.2.669-.218,1.7-.655,1.933A3.1,3.1,0,0,1,.206,31.377L0,31.107V20.656" transform="translate(0 -3.197)" fill="#b3b5c9"/>
        <path id="Tracé_3192" data-name="Tracé 3192" d="M212.992,66.8a8.377,8.377,0,0,1-.006-16.754,8.377,8.377,0,0,1,.006,16.754M213,54.439a3.946,3.946,0,0,0-4.039,3.987,4.089,4.089,0,0,0,4.012,4.076,4.029,4.029,0,0,0,4.007-4.049A3.893,3.893,0,0,0,213,54.439" transform="translate(-119.521 -29.229)" fill="#b3b5c9"/>
        <path id="Tracé_3193" data-name="Tracé 3193" d="M28.189,66.8a8.379,8.379,0,1,1,8.358-8.395A8.432,8.432,0,0,1,28.189,66.8m3.959-8.355a3.92,3.92,0,0,0-4.01-4.006,4.006,4.006,0,0,0-4.058,3.994A4.138,4.138,0,0,0,28.127,62.5a4.042,4.042,0,0,0,4.021-4.056" transform="translate(-11.518 -29.23)" fill="#b3b5c9"/>
        <path id="Tracé_3194" data-name="Tracé 3194" d="M108.349,8.685a12.337,12.337,0,0,1-2.741-.584c-2.709-1.255-5.363-2.632-8.027-3.984a16.49,16.49,0,0,0-7.757-1.828c-3.443.036-6.888.021-10.331.005a17.817,17.817,0,0,0-9.608,2.619,3.767,3.767,0,0,0-.581.352c-4.554,4.128-10.13,3.391-15.574,3.271-.094,0-.185-.094-.374-.2a4.4,4.4,0,0,1,.573-.395c4.122-1.9,8.238-3.8,12.375-5.667A28.127,28.127,0,0,1,78.012,0c4.313,0,8.631-.046,12.936.159A25.561,25.561,0,0,1,105.1,5.4c1.178.871,2.276,1.85,3.41,2.779l-.163.511" transform="translate(-31.164 0)" fill="#b3b5c9"/>
        <path id="Tracé_3195" data-name="Tracé 3195" d="M123.307,17.24H98.753a8.8,8.8,0,0,1,5.686-2.134c4.457-.1,8.918-.089,13.376-.014a9.254,9.254,0,0,1,5.492,2.148" transform="translate(-57.68 -8.78)" fill="#b3b5c9"/>
      </g>
    </g>
  </g>
</svg>
