<svg xmlns="http://www.w3.org/2000/svg" width="219.484" height="81.281" viewBox="0 0 219.484 81.281">
  <g id="Illustration_3" data-name="Illustration 3" transform="translate(109.742 40.64)">
    <g id="Groupe_16686" data-name="Groupe 16686" transform="translate(-109.742 -40.64)">
      <rect id="Rectangle_6214" data-name="Rectangle 6214" width="16.729" height="6.827" transform="translate(37.163 46.166)"/>
      <path id="Tracé_2913" data-name="Tracé 2913" d="M259.734,31.919c-9.989-1.605-38.025-8.051-46.432-10.63a257.3,257.3,0,0,1-34.064-13.5l-.511-.247c-1.266-.612-3.178-1.538-4.192-2.052-.456-.226-.974-.49-1.522-.77-1.1-.56-2.34-1.194-3.289-1.616A34.228,34.228,0,0,0,155.481,0h0c-7.553,0-15.5,2.418-23.625,7.188a91.085,91.085,0,0,0-19.818,16.227c-.44.47-.878.946-1.3,1.414-2.426,2.676-4.394,5.028-6.113,7.311,3.026.006,7.821.017,12.843.034.277-.368.53-.7.768-1.012a109.925,109.925,0,0,1,7.437-8.587c10.823-11.2,21.725-16.872,32.4-16.872a30.271,30.271,0,0,1,5.193.451,31.519,31.519,0,0,1,5.868,1.691c.611.243,1.894.8,2.83,1.2l.789.338c1.039.436,3.605,1.509,4.89,2.021a264.352,264.352,0,0,0,33.617,11.068c9.205,2.3,38.118,8.749,48.478,9.872Z" transform="translate(-40.814)" fill="#a61733"/>
      <path id="Tracé_2914" data-name="Tracé 2914" d="M99.189,70.922v13.31a9.879,9.879,0,0,0,1.821,5.981,5.647,5.647,0,0,0,4.662,2.6h29.757V86.316H105.672a1.088,1.088,0,0,1-.862-.526,2.539,2.539,0,0,1-.464-1.558V70.922a2.543,2.543,0,0,1,.465-1.558,1.086,1.086,0,0,1,.861-.525h29.757V62.347H105.672a5.627,5.627,0,0,0-4.66,2.618A9.843,9.843,0,0,0,99.189,70.922Z" transform="translate(-38.694 -24.322)"/>
      <path id="Tracé_2915" data-name="Tracé 2915" d="M196.127,62.389H173.711a5.651,5.651,0,0,0-4.663,2.6,9.885,9.885,0,0,0-1.821,5.981v21.86h5.158V84.011h25.067v8.813h5.158V70.965a9.891,9.891,0,0,0-1.821-5.981A5.65,5.65,0,0,0,196.127,62.389Zm1.325,14.463v.667H172.385V70.965a2.539,2.539,0,0,1,.465-1.558,1.085,1.085,0,0,1,.861-.525h22.416a1.086,1.086,0,0,1,.861.525,2.545,2.545,0,0,1,.465,1.559Z" transform="translate(-65.237 -24.338)"/>
      <path id="Tracé_2916" data-name="Tracé 2916" d="M265.35,82.653l.5-.381a8.358,8.358,0,0,0,2.144-2.5,13.309,13.309,0,0,0,1.74-6.8c0-3.456-.918-6.2-2.729-8.149a6.994,6.994,0,0,0-5.259-2.48H239.144a4.664,4.664,0,0,0-3.5,1.646,7.539,7.539,0,0,0-1.779,5.291V92.808h5.157v-9.2h20.128l.2.29.687,1,5.465,8.058h6.793L265.7,83.178Zm-.8-9.243-.008.081c-.012.2-.035.407-.07.63a5.178,5.178,0,0,1-.4,1.411,2.361,2.361,0,0,1-2.323,1.581H239.018V68.839H261.7l.044.006.316.041.017,0a2.138,2.138,0,0,1,.362.073l.009,0,.009,0a2.774,2.774,0,0,1,.9.476l.008.007.009.007a4.438,4.438,0,0,1,1.2,3.521A3.458,3.458,0,0,1,264.551,73.41Z" transform="translate(-91.231 -24.322)"/>
      <path id="Tracé_2917" data-name="Tracé 2917" d="M335.086,76.5a6.075,6.075,0,0,0-4.6-2.173h-21.14a1.447,1.447,0,0,1-1.437-.926l-.009-.018a3.022,3.022,0,0,1-.266-.921l-.012-.067a4.214,4.214,0,0,1-.078-.827,3.091,3.091,0,0,1,.7-2.292l.024-.023.026-.021a1.872,1.872,0,0,1,.555-.3l.014,0,.015,0a2.5,2.5,0,0,1,.48-.088l.029,0h27.484V62.347H309.349a6.1,6.1,0,0,0-4.586,2.161,10.066,10.066,0,0,0-2.373,7.09,11.56,11.56,0,0,0,1.494,5.891,6.148,6.148,0,0,0,5.466,3.334h21.114l.032,0a2.863,2.863,0,0,1,.476.088l.023.006.021.008a1.677,1.677,0,0,1,.529.3l.012.01.011.01a3.1,3.1,0,0,1,.723,2.337,5.285,5.285,0,0,1-.065.832,3.437,3.437,0,0,1-.294.964l-.008.016a1.446,1.446,0,0,1-1.435.921H302.961v6.492H330.49a6.126,6.126,0,0,0,5.47-3.342,11.644,11.644,0,0,0,1.489-5.884A10.054,10.054,0,0,0,335.086,76.5Z" transform="translate(-117.965 -24.322)"/>
      <g id="Groupe_16683" data-name="Groupe 16683" transform="translate(18.284 75.9)">
        <path id="Tracé_2918" data-name="Tracé 2918" d="M29.979,126.276h.969V129.6h1.9v.829H29.979Z" transform="translate(-29.979 -125.161)"/>
        <path id="Tracé_2919" data-name="Tracé 2919" d="M40.869,130.2a1.967,1.967,0,0,1-.812-.767,2.247,2.247,0,0,1-.288-1.15,2.213,2.213,0,0,1,.292-1.144,2.013,2.013,0,0,1,.814-.771,2.739,2.739,0,0,1,2.388,0,2.013,2.013,0,0,1,.814.771,2.212,2.212,0,0,1,.292,1.144,2.242,2.242,0,0,1-.289,1.15,1.962,1.962,0,0,1-.811.767,2.786,2.786,0,0,1-2.4,0Zm1.888-.709a1.228,1.228,0,0,0,.473-.49,1.494,1.494,0,0,0,.169-.718,1.478,1.478,0,0,0-.169-.715,1.232,1.232,0,0,0-.473-.487,1.443,1.443,0,0,0-1.378,0,1.228,1.228,0,0,0-.473.487,1.478,1.478,0,0,0-.17.715,1.494,1.494,0,0,0,.17.718,1.224,1.224,0,0,0,.473.49,1.443,1.443,0,0,0,1.378,0Z" transform="translate(-33.798 -125.09)"/>
        <path id="Tracé_2920" data-name="Tracé 2920" d="M53.9,130.194a2,2,0,0,1-.79-.776,2.4,2.4,0,0,1,0-2.271,2.008,2.008,0,0,1,.79-.776,2.332,2.332,0,0,1,1.141-.277,2.27,2.27,0,0,1,.954.2,1.986,1.986,0,0,1,.732.563,1.742,1.742,0,0,1,.368.823l-.9.1a1.089,1.089,0,0,0-.406-.633,1.148,1.148,0,0,0-.726-.248,1.245,1.245,0,0,0-.657.175,1.205,1.205,0,0,0-.449.487,1.547,1.547,0,0,0-.16.715,1.564,1.564,0,0,0,.16.718,1.2,1.2,0,0,0,.449.49,1.245,1.245,0,0,0,.657.175,1.152,1.152,0,0,0,.715-.242,1.12,1.12,0,0,0,.418-.622l.911.123a1.646,1.646,0,0,1-.359.8,1.943,1.943,0,0,1-.732.549,2.372,2.372,0,0,1-.969.2A2.333,2.333,0,0,1,53.9,130.194Z" transform="translate(-38.891 -125.09)"/>
        <path id="Tracé_2921" data-name="Tracé 2921" d="M66.259,126.276h1.4l1.395,4.156h-.981l-.257-.742H66.09l-.257.742h-.98Zm1.348,2.7-.619-1.874h-.058l-.631,1.874Z" transform="translate(-43.584 -125.161)"/>
        <path id="Tracé_2922" data-name="Tracé 2922" d="M77.518,127.081H76.193v-.805h3.619v.805H78.487v3.351h-.968Z" transform="translate(-48.007 -125.161)"/>
        <path id="Tracé_2923" data-name="Tracé 2923" d="M87.706,126.276h.969v4.156h-.969Z" transform="translate(-52.499 -125.161)"/>
        <path id="Tracé_2924" data-name="Tracé 2924" d="M96.233,130.2a1.967,1.967,0,0,1-.812-.767,2.247,2.247,0,0,1-.288-1.15,2.213,2.213,0,0,1,.292-1.144,2.013,2.013,0,0,1,.814-.771,2.738,2.738,0,0,1,2.387,0,2.013,2.013,0,0,1,.814.771,2.213,2.213,0,0,1,.292,1.144,2.241,2.241,0,0,1-.289,1.15,1.965,1.965,0,0,1-.811.767,2.786,2.786,0,0,1-2.4,0Zm1.888-.709a1.228,1.228,0,0,0,.473-.49,1.494,1.494,0,0,0,.169-.718,1.478,1.478,0,0,0-.169-.715,1.232,1.232,0,0,0-.473-.487,1.443,1.443,0,0,0-1.378,0,1.228,1.228,0,0,0-.473.487,1.478,1.478,0,0,0-.17.715,1.494,1.494,0,0,0,.17.718,1.224,1.224,0,0,0,.473.49,1.443,1.443,0,0,0,1.378,0Z" transform="translate(-55.396 -125.09)"/>
        <path id="Tracé_2925" data-name="Tracé 2925" d="M108.512,126.276h1.12l1.576,2.9h.059v-2.9h.922v4.156h-1.12l-1.576-2.9h-.059v2.9h-.922Z" transform="translate(-60.615 -125.161)"/>
        <path id="Tracé_2926" data-name="Tracé 2926" d="M127.843,126.276H129.4a2.873,2.873,0,0,1,1.255.26,2,2,0,0,1,0,3.636,2.873,2.873,0,0,1-1.255.26h-1.559Zm1.559,3.4a1.664,1.664,0,0,0,.75-.161,1.175,1.175,0,0,0,.5-.458,1.454,1.454,0,0,0,0-1.395,1.19,1.19,0,0,0-.5-.461,1.64,1.64,0,0,0-.75-.163h-.613v2.638Z" transform="translate(-68.157 -125.161)"/>
        <path id="Tracé_2927" data-name="Tracé 2927" d="M140.16,126.276h3.065v.782h-2.119v.916h1.961v.683h-1.961v.992h2.177v.782H140.16Z" transform="translate(-72.962 -125.161)"/>
        <path id="Tracé_2928" data-name="Tracé 2928" d="M157.741,126.276h.992l1.05,3.443h.059l1.05-3.443h1l-1.319,4.156H159.06Z" transform="translate(-79.82 -125.161)"/>
        <path id="Tracé_2929" data-name="Tracé 2929" d="M170.191,125.563h3.065v.782h-2.119v.916H173.1v.683h-1.961v.992h2.177v.782h-3.123Zm1.821-1.115h.858l-.77.706h-.736Z" transform="translate(-84.677 -124.448)"/>
        <path id="Tracé_2930" data-name="Tracé 2930" d="M181.149,126.276h.969v1.611h1.728v-1.611h.968v4.156h-.968v-1.763h-1.728v1.763h-.969Z" transform="translate(-88.952 -125.161)"/>
        <path id="Tracé_2931" data-name="Tracé 2931" d="M193.322,126.276h.969v4.156h-.969Z" transform="translate(-93.701 -125.161)"/>
        <path id="Tracé_2932" data-name="Tracé 2932" d="M201.835,130.194a2,2,0,0,1-.79-.776,2.4,2.4,0,0,1,0-2.271,2.008,2.008,0,0,1,.79-.776,2.332,2.332,0,0,1,1.141-.277,2.27,2.27,0,0,1,.955.2,1.991,1.991,0,0,1,.732.563,1.742,1.742,0,0,1,.368.823l-.905.1a1.085,1.085,0,0,0-.406-.633,1.149,1.149,0,0,0-.726-.248,1.245,1.245,0,0,0-.657.175,1.206,1.206,0,0,0-.45.487,1.547,1.547,0,0,0-.16.715,1.564,1.564,0,0,0,.16.718,1.2,1.2,0,0,0,.45.49,1.245,1.245,0,0,0,.657.175,1.154,1.154,0,0,0,.715-.242,1.116,1.116,0,0,0,.417-.622l.911.123a1.639,1.639,0,0,1-.359.8,1.943,1.943,0,0,1-.732.549,2.374,2.374,0,0,1-.969.2A2.333,2.333,0,0,1,201.835,130.194Z" transform="translate(-96.602 -125.09)"/>
        <path id="Tracé_2933" data-name="Tracé 2933" d="M214.469,130.321a1.62,1.62,0,0,1-.659-.625,1.8,1.8,0,0,1-.237-.928v-2.492h.969v2.469a1.029,1.029,0,0,0,.248.718.83.83,0,0,0,.645.274.819.819,0,0,0,.639-.278,1.032,1.032,0,0,0,.248-.715v-2.469h.969v2.492a1.8,1.8,0,0,1-.236.928,1.632,1.632,0,0,1-.657.625,2.212,2.212,0,0,1-1.929,0Z" transform="translate(-101.601 -125.161)"/>
        <path id="Tracé_2934" data-name="Tracé 2934" d="M225.784,126.276h.969V129.6h1.9v.829h-2.866Z" transform="translate(-106.364 -125.161)"/>
        <path id="Tracé_2935" data-name="Tracé 2935" d="M236.216,126.276h3.064v.782h-2.119v.916h1.961v.683h-1.961v.992h2.177v.782h-3.123Z" transform="translate(-110.434 -125.161)"/>
        <path id="Tracé_2936" data-name="Tracé 2936" d="M254.323,126.276h1.827a2.127,2.127,0,0,1,.879.169,1.321,1.321,0,0,1,.581.482,1.307,1.307,0,0,1,.2.732,1.3,1.3,0,0,1-.788,1.237,2.086,2.086,0,0,1-.881.175h-.864v1.36h-.957Zm1.745,2.06a.839.839,0,0,0,.567-.181.607.607,0,0,0,.21-.484.6.6,0,0,0-.21-.482.85.85,0,0,0-.567-.177h-.788v1.325Z" transform="translate(-117.498 -125.161)" fill="#e42320"/>
        <path id="Tracé_2937" data-name="Tracé 2937" d="M265.788,126.276h1.985a2,2,0,0,1,.849.169,1.324,1.324,0,0,1,.567.479,1.286,1.286,0,0,1,.2.718,1.241,1.241,0,0,1-.149.6,1.22,1.22,0,0,1-.409.44,1.381,1.381,0,0,1-.592.21l-.047.005,1.331,1.53h-1.109l-1.191-1.459h-.467v1.459h-.969Zm1.856,2.013a.879.879,0,0,0,.569-.172.571.571,0,0,0,.214-.47.562.562,0,0,0-.217-.464.881.881,0,0,0-.566-.172h-.887v1.278Z" transform="translate(-121.97 -125.161)" fill="#e42320"/>
        <path id="Tracé_2938" data-name="Tracé 2938" d="M277.559,126.276h3.065v.782H278.5v.916h1.961v.683H278.5v.992h2.177v.782h-3.123Z" transform="translate(-126.562 -125.161)" fill="#e42320"/>
        <path id="Tracé_2939" data-name="Tracé 2939" d="M288.517,126.276h1.342l1.092,2.953h.059l1.086-2.953h1.354v4.156H292.5v-2.86h-.058l-1.068,2.86h-.789l-1.068-2.86h-.059v2.86h-.945Z" transform="translate(-130.837 -125.161)" fill="#e42320"/>
        <path id="Tracé_2940" data-name="Tracé 2940" d="M302.777,126.276h.969v4.156h-.969Z" transform="translate(-136.4 -125.161)" fill="#e42320"/>
        <path id="Tracé_2941" data-name="Tracé 2941" d="M311.386,130.321a1.622,1.622,0,0,1-.659-.625,1.8,1.8,0,0,1-.237-.928v-2.492h.969v2.469a1.027,1.027,0,0,0,.248.718.828.828,0,0,0,.645.274.818.818,0,0,0,.639-.278,1.032,1.032,0,0,0,.248-.715v-2.469h.969v2.492a1.8,1.8,0,0,1-.236.928,1.628,1.628,0,0,1-.657.625,2.034,2.034,0,0,1-.963.221A2.054,2.054,0,0,1,311.386,130.321Z" transform="translate(-139.409 -125.161)" fill="#e42320"/>
        <path id="Tracé_2942" data-name="Tracé 2942" d="M322.7,126.276h1.342l1.092,2.953h.058l1.086-2.953h1.354v4.156h-.946v-2.86h-.058l-1.069,2.86h-.788l-1.068-2.86h-.059v2.86H322.7Z" transform="translate(-144.173 -125.161)" fill="#e42320"/>
      </g>
      <g id="Groupe_16684" data-name="Groupe 16684" transform="translate(0 23.575)">
        <path id="Tracé_2943" data-name="Tracé 2943" d="M55.677,38.654h0c-8.657,0-21.248.435-32.072,2.508a57.662,57.662,0,0,0-14.1,4.32c-4.3,2.087-7.212,4.677-8.661,7.7A1.785,1.785,0,0,0,.7,53.6l-.012.059-.023.056A9.445,9.445,0,0,0,0,57.211c2.4-2.394,6.734-4.217,12-5.6,1.681-.493,3.522-.95,5.5-1.364,9.642-2.015,22.524-3.037,38.287-3.037.76,0,1.564,0,2.4.009l.506,0a31.144,31.144,0,0,1,6.48-8.4C62.017,38.71,58.831,38.654,55.677,38.654Z" transform="translate(0 -38.654)" fill="#a61733"/>
        <path id="Tracé_2944" data-name="Tracé 2944" d="M55.678,38.654h0c-8.657,0-21.248.435-32.072,2.508a57.662,57.662,0,0,0-14.1,4.32c-4.3,2.087-7.212,4.677-8.661,7.7A1.785,1.785,0,0,0,.7,53.6l-.012.059-.023.056A9.442,9.442,0,0,0,0,57.127c1.464-2.985,4.36-5.546,8.617-7.612a57.663,57.663,0,0,1,14.1-4.32c10.824-2.073,23.415-2.508,32.071-2.508h0c2.246,0,4.508.029,6.763.085a33.138,33.138,0,0,1,3.617-3.952C62.019,38.71,58.833,38.654,55.678,38.654Z" transform="translate(-0.001 -38.654)" fill="#dd0b15"/>
        <path id="Tracé_2945" data-name="Tracé 2945" d="M0,83.123A9.465,9.465,0,0,0,9.43,92.6H34.347V85.774H9.43a2.687,2.687,0,0,1-2.651-2.651V77.211H28.941V70.384H6.779V67.6a4.571,4.571,0,0,1,3.253-4.9c.627-.212,1.285-.417,1.967-.617-5.265,1.387-9.6,3.209-12,5.6Z" transform="translate(0 -47.793)" fill="#dd0b15"/>
      </g>
      <g id="Groupe_16685" data-name="Groupe 16685" transform="translate(63.807)">
        <path id="Tracé_2946" data-name="Tracé 2946" d="M259.734,31.919c-9.986-1.6-38.024-8.05-46.432-10.63a257.3,257.3,0,0,1-34.064-13.5l-.511-.247c-1.266-.612-3.178-1.538-4.192-2.052-.456-.226-.973-.49-1.522-.77-1.1-.56-2.34-1.194-3.289-1.616A34.228,34.228,0,0,0,155.481,0h0c-7.553,0-15.5,2.418-23.625,7.188a91.085,91.085,0,0,0-19.818,16.227c-.44.47-.878.946-1.3,1.414-2.426,2.676-4.394,5.028-6.113,7.311l5.6.013C126.492,13.587,151.7-2.979,167.878,5.373c32.469,16.76,82.215,25.146,91.856,26.556Z" transform="translate(-104.621)" fill="#dd0b15"/>
      </g>
    </g>
  </g>
</svg>
